<svg xmlns="http://www.w3.org/2000/svg" width="20" height="20" viewBox="2 2 20 20" version="1.1">
  <g id="Icons/Property/beds" stroke="none" stroke-width="1" fill="none" fill-rule="evenodd">
    <g id="Beds">
      <rect id="Rectangle-820-" fill-opacity="0.1" fill="#FDFDFD" opacity="0" x="0" y="0" width="24" height="24"/>
      <g id="Group-3" transform="translate(4.000000, 5.000000)" stroke="#FFFFFF" stroke-width="2">
        <path d="M14.0059397,6 L1.99406028,6 C1.72052929,6 1.47292152,6.11244133 1.29347146,6.29295859 C1.11204956,6.47545941 1,6.72759965 1,7.00591905 L1,9.99408095 C1,10.2745319 1.10959201,10.5270534 1.29044847,10.7089854 C1.47027079,10.8898771 1.71934769,11 1.99406028,11 L14.0059397,11 C14.2794707,11 14.5270785,10.8875587 14.7065285,10.7070414 C14.8879504,10.5245406 15,10.2724003 15,9.99408095 L15,7.00591905 C15,6.72546809 14.890408,6.47294663 14.7095515,6.2910146 C14.5297292,6.11012287 14.2806523,6 14.0059397,6 Z"
              id="Rectangle-98"/>
        <path d="M12.9941413,1 L3.00585866,1 C2.72793103,1 2.47645764,1.11240036 2.29449126,1.29437222 C2.11241768,1.47645128 2,1.7280606 2,2.00591905 L2,4.99408095 C2,5.27384427 2.11040999,5.52549613 2.29180498,5.70689658 C2.47429593,5.88939303 2.72720364,6 3.00585866,6 L12.9941413,6 C13.272069,6 13.5235424,5.88759964 13.7055087,5.70562778 C13.8875823,5.52354872 14,5.2719394 14,4.99408095 L14,2.00591905 C14,1.72615573 13.88959,1.47450387 13.708195,1.29310342 C13.5257041,1.11060697 13.2727964,1 12.9941413,1 Z"
              id="Rectangle-98"/>
        <line x1="3" y1="11.1293945" x2="3" y2="13.1293945" id="Path-709" stroke-linecap="round"/>
        <line x1="13" y1="11" x2="13" y2="13" id="Path-709-" stroke-linecap="round"/>
      </g>
    </g>
  </g>
</svg>
