<svg width="500" height="600" viewBox="9.5 23 5 25" version="1.1" xmlns="http://www.w3.org/2000/svg" xmlns:xlink="http://www.w3.org/1999/xlink">
    <g id="Rent" stroke="none" stroke-width="1" fill="none" fill-rule="evenodd">
        <g id="Group-25" transform="translate(0.000000, 24.000000)">
            <rect id="Rectangle-" x="0" y="0" width="24" height="24"></rect>
            <g id="icon_elevator" transform="translate(6.000000, 4.000000)" fill="#FFFFFF">
                <g id="Слой_1">
                    <path d="M9.7,0 L2.3,0 C1.02974508,-6.66133815e-16 8.8817842e-16,1.02974508 0,2.3 L0,13.7 C-1.77635684e-15,14.3099979 0.242320733,14.8950119 0.673654403,15.3263456 C1.10498807,15.7576793 1.69000207,16 2.3,16 L9.7,16 C10.3099979,16 10.8950119,15.7576793 11.3263456,15.3263456 C11.7576793,14.8950119 12,14.3099979 12,13.7 L12,2.3 C12,1.69000207 11.7576793,1.10498807 11.3263456,0.673654403 C10.8950119,0.242320733 10.3099979,-4.4408921e-16 9.7,0 L9.7,0 Z M10,13.7 C10,13.8656854 9.86568542,14 9.7,14 L2.3,14 C2.13431458,14 2,13.8656854 2,13.7 L2,2.3 C2,2.13431458 2.13431458,2 2.3,2 L9.7,2 C9.86568542,2 10,2.13431458 10,2.3 L10,13.7 L10,13.7 Z" id="Shape"></path>
                    <path d="M6.33,4.5 C6.26907373,4.3700666 6.13850853,4.28708278 5.995,4.28708278 C5.85149147,4.28708278 5.72092627,4.3700666 5.66,4.5 L4.33,6.5 C4.22434691,6.5884184 4.19548437,6.73896555 4.26094532,6.86018953 C4.32640627,6.98141351 4.46811975,7.0398496 4.6,7 L7.4,7 C7.53188025,7.0398496 7.67359373,6.98141351 7.73905468,6.86018953 C7.80451563,6.73896555 7.77565309,6.5884184 7.67,6.5 L6.33,4.5 Z" id="Shape"></path>
                    <path d="M7.4,9 L4.6,9 C4.46811975,8.9601504 4.32640627,9.01858649 4.26094532,9.13981047 C4.19548437,9.26103445 4.22434691,9.4115816 4.33,9.5 L5.66,11.5 C5.72092627,11.6299334 5.85149147,11.7129172 5.995,11.7129172 C6.13850853,11.7129172 6.26907373,11.6299334 6.33,11.5 L7.66,9.5 C7.7607181,9.41198711 7.7881766,9.26650616 7.72646835,9.14783646 C7.66476011,9.02916676 7.52989399,8.96809459 7.4,9 L7.4,9 Z" id="Shape"></path>
                </g>
            </g>
        </g>
    </g>
</svg>
