<svg width="500" height="600" viewBox="9.5 23 5 25" version="1.1" xmlns="http://www.w3.org/2000/svg" xmlns:xlink="http://www.w3.org/1999/xlink">
    <g id="Rent" stroke="none" stroke-width="1" fill="none" fill-rule="evenodd">
        <g id="Group-26" transform="translate(0.000000, 24.000000)">
            <rect id="Rectangle-" x="0" y="0" width="24" height="24"></rect>
            <g id="icon_fireplace" transform="translate(4.000000, 5.000000)" fill="#FFFFFF">
                <g id="Слой_1">
                    <path d="M15,0 L1,0 C0.44771525,0 0,0.44771525 0,1 C0,1.55228475 0.44771525,2 1,2 L2,2 L2,13 C2,13.5522847 2.44771525,14 3,14 C3.55228475,14 4,13.5522847 4,13 L4,6 L12,6 L12,13 C12,13.5522847 12.4477153,14 13,14 C13.5522847,14 14,13.5522847 14,13 L14,2 L15,2 C15.5522847,2 16,1.55228475 16,1 C16,0.44771525 15.5522847,0 15,0 L15,0 Z M12,4 L4,4 L4,2 L12,2 L12,4 L12,4 Z" id="Shape"></path>
                    <path d="M8.22,9.56 C8.1,9.25 7.9,9.25 7.77,9.56 L6.22,13.45 C6.15129746,13.575111 6.1584982,13.7281695 6.23864314,13.8462779 C6.31878809,13.9643862 6.45835874,14.0276223 6.6,14.01 L9.4,14.01 C9.54164126,14.0276223 9.68121191,13.9643862 9.76135686,13.8462779 C9.8415018,13.7281695 9.84870254,13.575111 9.78,13.45 L8.22,9.56 Z" id="Shape"></path>
                </g>
            </g>
        </g>
    </g>
</svg>
