<svg width="500" height="600" viewBox="9.5 23 5 25" version="1.1" xmlns="http://www.w3.org/2000/svg" xmlns:xlink="http://www.w3.org/1999/xlink">
    <g id="Rent" stroke="none" stroke-width="1" fill="none" fill-rule="evenodd">
        <g id="Group-31" transform="translate(0.000000, 24.000000)">
            <rect id="Rectangle-" x="0" y="0" width="24" height="24"></rect>
            <g id="Group-5" transform="translate(3.000000, 3.000000)" fill="#FFFFFF">
                <path d="M15,4 L13.3,4 C12.032,4 11,5.032 11,6.3 L11,8 L7,8 L7,6.3 C7,5.032 5.968,4 4.7,4 L3,4 C1.346,4 0,5.346 0,7 C0,8.304 0.836,9.416 2,9.829 L2,11 C2,13.206 3.794,15 6,15 L12,15 C14.206,15 16,13.206 16,11 L16,9.829 C17.164,9.416 18,8.304 18,7 C18,5.346 16.654,4 15,4 L15,4 Z M15,6 C15.552,6 16,6.448 16,7 C16,7.552 15.552,8 15,8 L14.3,8 C14.135,8 14,8.135 14,8.3 L14,11 C14,12.105 13.105,13 12,13 L6,13 C4.895,13 4,12.105 4,11 L4,8.3 C4,8.135 3.865,8 3.7,8 L3,8 C2.448,8 2,7.552 2,7 C2,6.448 2.448,6 3,6 L4.7,6 C4.865,6 5,6.135 5,6.3 L5,9 C5,9.552 5.448,10 6,10 L12,10 C12.552,10 13,9.552 13,9 L13,6.3 C13,6.135 13.135,6 13.3,6 L15,6 L15,6 Z" id="Fill-2"></path>
                <path d="M7,2 L11,2 C12.1047153,2 13,2.89528475 13,4 L15,4 C15,1.79071525 13.2092847,0 11,0 L7,0 C4.79071525,0 3,1.79071525 3,4 L5,4 C5,2.89528475 5.89528475,2 7,2 Z" id="Stroke-4" fill-rule="nonzero"></path>
                <path d="M4,16 C4,16.5522847 4.44771525,17 5,17 C5.55228475,17 6,16.5522847 6,16 L6,14 C6,13.4477153 5.55228475,13 5,13 C4.44771525,13 4,13.4477153 4,14 L4,16 Z" id="Stroke-6" fill-rule="nonzero"></path>
                <path d="M12,16 C12,16.5522847 12.4477153,17 13,17 C13.5522847,17 14,16.5522847 14,16 L14,14 C14,13.4477153 13.5522847,13 13,13 C12.4477153,13 12,13.4477153 12,14 L12,16 Z" id="Stroke-8" fill-rule="nonzero"></path>
            </g>
        </g>
    </g>
</svg>
