<svg width="500" height="600" viewBox="9.5 23 5 25" version="1.1" xmlns="http://www.w3.org/2000/svg" xmlns:xlink="http://www.w3.org/1999/xlink">
    <g id="Rent" stroke="none" stroke-width="1" fill="none" fill-rule="evenodd">
        <g id="Group-20" transform="translate(0.000000, 24.000000)">
            <rect id="Rectangle-" x="0" y="0" width="24" height="24"></rect>
            <g id="icon_hardwood_floors" transform="translate(2.000000, 2.000000)" fill="#FFFFFF">
                <g id="Слой_1">
                    <path d="M8,5.33 C8.27168165,5.32107104 8.5280217,5.20192708 8.71,5 L12,1.71 C12.3397768,1.31323972 12.3169323,0.721805828 11.9475632,0.352436779 C11.5781942,-0.0169322697 10.9867603,-0.0397767959 10.59,0.3 L7.29,3.63 C7.00867136,3.91700575 6.92649502,4.34454555 7.08137905,4.71539463 C7.23626308,5.08624372 7.59811028,5.32833839 8,5.33 L8,5.33 Z" id="Shape"></path>
                    <path d="M6,6.29 C5.60996255,5.90227641 4.98003745,5.90227641 4.59,6.29 L1.29,9.63 C0.971681645,9.86663484 0.823307731,10.2690378 0.91181283,10.6556765 C1.00031793,11.0423152 1.30897127,11.3401004 1.69853289,11.4146951 C2.08809451,11.4892898 2.48492271,11.3265928 2.71,11 L6,7.71 C6.18931265,7.5222334 6.29579832,7.26663754 6.29579832,7 C6.29579832,6.73336246 6.18931265,6.4777666 6,6.29 L6,6.29 Z" id="Shape"></path>
                    <path d="M18.71,7 C18.3199625,6.61227641 17.6900375,6.61227641 17.3,7 L14,10.29 C13.7146238,10.5343899 13.5903181,10.9181184 13.6781899,11.283419 C13.7660617,11.6487195 14.0512805,11.9339383 14.416581,12.0218101 C14.7818816,12.1096819 15.1656101,11.9853762 15.41,11.7 L18.74,8.37 C19.0936332,7.97716885 19.0804902,7.37697444 18.71,7 L18.71,7 Z" id="Shape"></path>
                    <path d="M11.29,13 L8,16.29 C7.71462384,16.5343899 7.59031806,16.9181184 7.67818987,17.283419 C7.76606167,17.6487195 8.05128045,17.9339383 8.41658103,18.0218101 C8.7818816,18.1096819 9.16561012,17.9853762 9.41,17.7 L12.74,14.37 C13.0718846,13.9639344 13.033687,13.3704585 12.6524856,13.0102889 C12.2712842,12.6501193 11.6765973,12.6456285 11.29,13 L11.29,13 Z" id="Shape"></path>
                    <path d="M15.37,3.63 C14.9799625,3.24227641 14.3500375,3.24227641 13.96,3.63 L4.63,13 C4.27060704,13.2128436 4.0813616,13.6266407 4.15541275,14.037715 C4.22946391,14.4487894 4.55121063,14.7705361 4.96228497,14.8445872 C5.3733593,14.9186384 5.78715644,14.729393 6,14.37 L15.37,5 C15.7319426,4.61504999 15.7319426,4.01495001 15.37,3.63 L15.37,3.63 Z" id="Shape"></path>
                </g>
            </g>
        </g>
    </g>
</svg>
