<svg width="500" height="600" viewBox="9.5 23 5 25" version="1.1" xmlns="http://www.w3.org/2000/svg" xmlns:xlink="http://www.w3.org/1999/xlink">
    <g id="Rent" stroke="none" stroke-width="1" fill="none" fill-rule="evenodd">
        <g id="Group-23" transform="translate(0.000000, 24.000000)">
            <rect id="Rectangle-" x="0" y="0" width="24" height="24"></rect>
            <g id="Group-7" transform="translate(5.000000, 4.000000)" fill="#FFFFFF" fill-rule="nonzero">
                <path d="M13,2 C13.5522847,2 14,1.55228475 14,1 C14,0.44771525 13.5522847,0 13,0 L1,0 C0.44771525,0 0,0.44771525 0,1 C0,1.55228475 0.44771525,2 1,2 L13,2 Z" id="Stroke-18"></path>
                <path d="M13,16 C13.5522847,16 14,15.5522847 14,15 C14,14.4477153 13.5522847,14 13,14 L1,14 C0.44771525,14 0,14.4477153 0,15 C0,15.5522847 0.44771525,16 1,16 L13,16 Z" id="Stroke-19"></path>
                <path d="M6,12 C6,12.5522847 6.44771525,13 7,13 C7.55228475,13 8,12.5522847 8,12 L8,4 C8,3.44771525 7.55228475,3 7,3 C6.44771525,3 6,3.44771525 6,4 L6,12 Z" id="Stroke-22"></path>
                <path d="M7.70710678,3.70710678 L6.29289322,3.70710678 L8.29289322,5.70710678 C8.68341751,6.09763107 9.31658249,6.09763107 9.70710678,5.70710678 C10.0976311,5.31658249 10.0976311,4.68341751 9.70710678,4.29289322 L7.70710678,2.29289322 C7.31658249,1.90236893 6.68341751,1.90236893 6.29289322,2.29289322 L4.29289322,4.29289322 C3.90236893,4.68341751 3.90236893,5.31658249 4.29289322,5.70710678 C4.68341751,6.09763107 5.31658249,6.09763107 5.70710678,5.70710678 L7.70710678,3.70710678 Z" id="Stroke-23"></path>
                <path d="M6.29289322,12.2928932 L7.70710678,12.2928932 L5.70710678,10.2928932 C5.31658249,9.90236893 4.68341751,9.90236893 4.29289322,10.2928932 C3.90236893,10.6834175 3.90236893,11.3165825 4.29289322,11.7071068 L6.29289322,13.7071068 C6.68341751,14.0976311 7.31658249,14.0976311 7.70710678,13.7071068 L9.70710678,11.7071068 C10.0976311,11.3165825 10.0976311,10.6834175 9.70710678,10.2928932 C9.31658249,9.90236893 8.68341751,9.90236893 8.29289322,10.2928932 L6.29289322,12.2928932 Z" id="Stroke-24"></path>
            </g>
        </g>
    </g>
</svg>
