<?xml version="1.0" encoding="UTF-8"?>
<svg width="160px" height="160px" viewBox="0 0 160 160" version="1.1" xmlns="http://www.w3.org/2000/svg" xmlns:xlink="http://www.w3.org/1999/xlink">
    <!-- Generator: Sketch 54.1 (76490) - https://sketchapp.com -->
    <title>Book online</title>
    <desc>Created with Sketch.</desc>
    <g id="Book-online" stroke="none" stroke-width="1" fill="none" fill-rule="evenodd" stroke-linecap="round" stroke-linejoin="round">
        <g id="real-estate-app-house-laptop" transform="translate(6.000000, 6.000000)" stroke-width="6">
            <path d="M45.125,45.125 L30.1549167,45.125 C24.2473568,45.125 19.4583333,49.9140235 19.4583333,55.8215833 L19.4583333,128.541667" id="Path" stroke="#2D4658"></path>
            <path d="M128.541667,128.541667 L128.541667,96.4583333" id="Path" stroke="#2D4658"></path>
            <path d="M147.791667,128.541667 C147.791667,139.173148 139.173148,147.791667 128.541667,147.791667 L19.4583333,147.791667 C8.8268519,147.791667 0.208333333,139.173148 0.208333333,128.541667 L147.791667,128.541667 Z" id="Path" stroke="#2D4658"></path>
            <path d="M83.625,33.1386667 L83.625,57.9583333 C83.625,61.5021605 86.4978395,64.375 90.0416667,64.375 L115.708333,64.375 C119.25216,64.375 122.125,61.5021605 122.125,57.9583333 L122.125,33.1386667" id="Path" stroke="#00C3B0"></path>
            <path d="M77.2083333,38.75325 L96.5353333,21.8389167 C100.164711,18.6618307 105.585289,18.6618307 109.214667,21.8389167 L128.541667,38.75325" id="Path" stroke="#00C3B0"></path>
            <path d="M96.4583333,64.375 L96.4583333,51.5416667 C96.4583333,47.9978395 99.3311729,45.125 102.875,45.125 C106.418827,45.125 109.291667,47.9978395 109.291667,51.5416667 L109.291667,64.375" id="Path" stroke="#00C3B0"></path>
            <path d="M102.875,0.208333333 C86.4479588,0.206858296 71.3303949,9.17299073 63.4540625,23.5886445 C55.5777301,38.0042983 56.1991209,55.5697798 65.0744167,69.3928333 L53.69125,92.15275 C53.3777575,92.7714872 53.4974421,93.5216264 53.9879079,94.0120921 C54.4783736,94.5025579 55.2285128,94.6222425 55.84725,94.30875 L78.6071667,82.9255833 C94.7151742,93.2641864 115.605282,92.2592915 130.646557,80.4222876 C145.687832,68.5852836 151.575562,48.5168745 145.313493,30.4298319 C139.051423,12.3427893 122.015392,0.211010836 102.875,0.208333333 Z" id="Path" stroke="#2D4658"></path>
        </g>
    </g>
</svg>