<svg xmlns="http://www.w3.org/2000/svg" class="MuiSvgIcon-root jss33 MuiSvgIcon-fontSizeInherit" focusable="false" viewBox="0 0 32 32" aria-hidden="true" data-name="Layer 1"><path data-name="Shape 502" d="M30 15.18l-13.18-12a1.22 1.22 0 0 0-1.64 0L2 15.18" fill="none" stroke="#2d4658" stroke-linecap="round" stroke-linejoin="round" stroke-width="1.5"/><path d="M19.51 20.84h3.95a4.67 4.67 0 0 1 3.64-2.4v-2.66a.74.74 0 0 0-.27-.57L16.49 6.43a.75.75 0 0 0-1 0L5.15 15.84a.73.73 0 0 0-.25.55v12.18a1.35 1.35 0 0 0 1.36 1.35h5.44a.75.75 0 0 0 .79-.75V19h7zm3.95 4.5h-1a2.24 2.24 0 0 1-2.21 1.82 2.11 2.11 0 0 1-.75-.13v2.14a.75.75 0 0 0 .75.75h6.09a.75.75 0 0 0 .75-.75v-1.43a4.67 4.67 0 0 1-3.63-2.4z" fill="#00c5ba"/><path d="M27.57 19.9a3.18 3.18 0 0 0-3.09 2.44H16a.75.75 0 0 0 0 1.5h1.08v1.68a.75.75 0 0 0 1.5 0v-1.68h.93v1.07a.75.75 0 0 0 1.5 0v-1.07h3.47a3.18 3.18 0 1 0 3.09-3.94zm0 4.87a1.69 1.69 0 1 1 1.68-1.68 1.69 1.69 0 0 1-1.68 1.68z" fill="#2d4658"/></svg>