<svg xmlns="http://www.w3.org/2000/svg" class="MuiSvgIcon-root jss33 MuiSvgIcon-fontSizeInherit" focusable="false" viewBox="0 0 32 32" aria-hidden="true" id="find-a-place-to-rent_svg__Layer_1" data-name="Layer 1"><defs><style>.find-a-place-to-rent_svg__cls-1{fill:none;stroke:#2d4658;stroke-linecap:round;stroke-linejoin:round;stroke-width:1.5px}</style></defs><path id="find-a-place-to-rent_svg__Shape_502" data-name="Shape 502" class="find-a-place-to-rent_svg__cls-1" d="M30 15.18l-13.18-12a1.22 1.22 0 0 0-1.64 0L2 15.18"/><path d="M18.44 28.74A7.76 7.76 0 1 1 27.1 16v-.17a.74.74 0 0 0-.27-.57L16.49 6.43a.75.75 0 0 0-1 0L5.15 15.84a.73.73 0 0 0-.25.55v12.18a1.35 1.35 0 0 0 1.36 1.35h12.18z" fill="currentColor"/><path id="find-a-place-to-rent_svg__Oval_18" data-name="Oval 18" class="find-a-place-to-rent_svg__cls-1" d="M22.12 27.42a5.52 5.52 0 1 0-5.51-5.51 5.52 5.52 0 0 0 5.51 5.51z"/><path id="find-a-place-to-rent_svg__Shape_387" data-name="Shape 387" class="find-a-place-to-rent_svg__cls-1" d="M30 29.78l-3.95-4"/></svg>