<svg xmlns:xlink="http://www.w3.org/1999/xlink" xmlns="http://www.w3.org/2000/svg" class="MuiSvgIcon-root" focusable="false" viewBox="0 0 24 24" aria-hidden="true" fill-opacity="0.54" fill="#000000" width="24"  height="24" ><path d="M23.5 24a.502.502 0 0 1-.406-.207l-2.481-3.434a.5.5 0 0 1-.095-.291l-.018-4.566c.031-1.319-1.832-3-3.5-4.421V15a.492.492 0 0 1-.034.18l1.916 1.971a.5.5 0 0 1-.718.697l-2.69-2.768a.56.56 0 0 0-.78.807l2.714 3.295c.073.09.114.202.114.318V21c0 .518.825 1.566 1.411 2.144a.498.498 0 0 1-.35.856.495.495 0 0 1-.351-.144c-.285-.281-1.709-1.743-1.709-2.856v-1.321l-2.576-3.129c-.555-.582-.55-1.521.024-2.125a1.568 1.568 0 0 1 2.03-.202V1.5A.502.502 0 0 0 15.5 1h-14a.5.5 0 0 0-.5.5v18a.5.5 0 0 0 .5.5h12a.5.5 0 0 1 0 1h-12C.672 21 0 20.327 0 19.5v-18C0 .673.672 0 1.5 0h14c.827 0 1.5.673 1.5 1.5v8.269l.241.204c2.017 1.71 4.304 3.648 4.259 5.539l.019 4.392 2.387 3.304A.501.501 0 0 1 23.5 24z" fill-opacity="0.54" fill="#000000"></path><path d="M4 19c-.551 0-1-.448-1-1v-6c0-.551.449-1 1-1h9c.552 0 1 .449 1 1v1.457c.002.015.004.03.004.043a.5.5 0 0 1-.5.5h-3.5v4H13.5a.5.5 0 0 1 0 1H4zm5.004-1v-4h-2v4h2zM4 18h2.004v-4H4v4zm9-5v-1h-2.996v1H13zm-3.996 0v-1h-2v1h2zm-3 0v-1H4v1h2.004zM9.504 5a.5.5 0 0 1 0-1h4a.5.5 0 0 1 0 1h-4zM9.504 7a.5.5 0 0 1 0-1h2.5a.5.5 0 0 1 0 1h-2.5zM5.504 10a.5.5 0 0 1-.5-.5V9H3.5a.5.5 0 0 1 0-1h3a.5.5 0 0 0 0-1h-2a1.501 1.501 0 0 1 0-3h.504v-.5a.5.5 0 0 1 1 0V4H7.5a.5.5 0 0 1 0 1h-3a.5.5 0 0 0 0 1h2C7.327 6 8 6.673 8 7.5S7.327 9 6.5 9h-.496v.5a.5.5 0 0 1-.5.5z" fill-opacity="0.54" fill="#000000"></path></svg>