<svg xmlns:xlink="http://www.w3.org/1999/xlink" xmlns="http://www.w3.org/2000/svg" class="MuiSvgIcon-root" focusable="false" viewBox="0 0 24 24" aria-hidden="true" width="24"  height="24" ><svg class="MuiSvgIcon-root" focusable="false" viewBox="0 0 24 24" aria-hidden="true" fill-opacity="0.54" fill="#000000"><path d="M.5 23.5a.497.497 0 0 1-.487-.613.497.497 0 0 1 .223-.312l4-2.5a.497.497 0 0 1 .424-.049c1.301.434 2.363.807 3.3 1.137 2.326.818 3.607 1.269 4.735 1.269 1.357 0 2.591-.664 5.293-2.118 1.225-.659 2.734-1.471 4.679-2.454a2.282 2.282 0 0 0-1.386-.472c-.216 0-.431.031-.638.093l-4.236 1.407a1.508 1.508 0 0 1-1.446.614H9.5a.5.5 0 1 1 0-1.002H15c.03 0 .06.003.089.008a.518.518 0 0 0 .555-.292.517.517 0 0 0 .043-.125.513.513 0 0 0-.6-.598.601.601 0 0 1-.087.007h-3a.5.5 0 0 1-.359-.152 6.069 6.069 0 0 0-4.159-1.849H4.618L.723 17.446a.496.496 0 0 1-.67-.223.497.497 0 0 1 .224-.671l4-2A.5.5 0 0 1 4.5 14.5h3a7.082 7.082 0 0 1 4.707 2h2.752a1.457 1.457 0 0 1 .488.008 1.51 1.51 0 0 1 1.222 1.238l3.674-1.22a3.275 3.275 0 0 1 3.559 1.177.501.501 0 0 1-.178.746c-2.236 1.117-3.913 2.021-5.262 2.746-2.777 1.495-4.171 2.245-5.751 2.245-1.294 0-2.72-.501-5.082-1.332-.888-.312-1.879-.66-3.063-1.058l-3.8 2.375A.51.51 0 0 1 .5 23.5zM15.504 13.798c-3.666 0-6.649-2.983-6.649-6.649S11.837.5 15.504.5s6.649 2.983 6.649 6.649-2.983 6.649-6.649 6.649zm0-12.298c-3.115 0-5.649 2.534-5.649 5.649s2.534 5.649 5.649 5.649 5.649-2.534 5.649-5.649S18.619 1.5 15.504 1.5z" fill-opacity="0.54" fill="#000000"></path><path d="M15.504 11.5a.5.5 0 0 1-.5-.5v-.5H14a.5.5 0 0 1 0-1h2.035a.842.842 0 0 0 .313-1.623l-2.063-.826a1.835 1.835 0 0 1-1.156-1.708c0-.492.191-.955.539-1.303a1.83 1.83 0 0 1 1.302-.54h.033V3a.5.5 0 0 1 1 0v.5H17a.5.5 0 0 1 0 1h-2.029a.836.836 0 0 0-.595.247.84.84 0 0 0 .282 1.377l2.063.826c.457.183.814.534 1.007.987s.198.954.015 1.409a1.835 1.835 0 0 1-1.708 1.155h-.031V11a.5.5 0 0 1-.5.5z" fill-opacity="0.54" fill="#000000"></path></svg></svg>