<svg width="500" height="600" viewBox="9.5 23 5 25" version="1.1" xmlns="http://www.w3.org/2000/svg">
    <g id="Rent" stroke="none" stroke-width="1" fill="none" fill-rule="evenodd">
        <g id="Group-18" opacity="0.300000012" transform="translate(0.000000, 24.000000)">
            <rect id="Rectangle-" x="0" y="0" width="24" height="24"></rect>
            <g id="Group-3" transform="translate(5.000000, 4.000000)" fill="#2E2D36">
                <path d="M11.7,0 L2.3,0 C1.032,0 0,1.032 0,2.3 L0,13.7 C0,14.968 1.032,16 2.3,16 L11.7,16 C12.968,16 14,14.968 14,13.7 L14,2.3 C14,1.032 12.968,0 11.7,0 L11.7,0 Z M11.7,2 C11.865,2 12,2.135 12,2.3 L12,13.7 C12,13.865 11.865,14 11.7,14 L2.3,14 C2.135,14 2,13.865 2,13.7 L2,2.3 C2,2.135 2.135,2 2.3,2 L11.7,2 L11.7,2 Z" id="Fill-11"></path>
                <path d="M6,3.5 C6,3.775 5.775,4 5.5,4 L3.5,4 C3.225,4 3,3.775 3,3.5 C3,3.225 3.225,3 3.5,3 L5.5,3 C5.775,3 6,3.225 6,3.5" id="Fill-17"></path>
                <path d="M5,11 C5.00228475,11 5,7 5,7 C5,7.00228475 9,7 9,7 C8.99771525,7 9,11 9,11 C9,10.9977153 5,11 5,11 Z M11,7 C11,5.89771525 10.1022847,5 9,5 L5,5 C3.89771525,5 3,5.89771525 3,7 L3,11 C3,12.1022847 3.89771525,13 5,13 L9,13 C10.1022847,13 11,12.1022847 11,11 L11,7 Z" id="Stroke-21" fill-rule="nonzero"></path>
            </g>
        </g>
    </g>
</svg>
