<svg width="500" height="600" viewBox="9.5 23 5 25" version="1.1" xmlns="http://www.w3.org/2000/svg">
    <g id="Rent" stroke="none" stroke-width="1" fill="none" fill-rule="evenodd">
        <g id="Group-32" opacity="0.300000012" transform="translate(0.000000, 24.000000)">
            <rect id="Rectangle-" x="0" y="0" width="24" height="24"></rect>
            <g id="Group-8" transform="translate(2.000000, 4.000000)" fill="#2E2D36" fill-rule="nonzero">
                <path d="M9.49109514,7.6797141 L2.31998575,4.49210947 C2.39744197,4.52644839 2.53655,4.67945339 2.53655,4.9999 C2.53655,5.32034661 2.39744197,5.47335161 2.31909514,5.5080859 L9.49198575,2.31969053 C9.73601146,2.2115047 10.2635885,2.2115047 10.5085049,2.3200859 L17.6796142,5.50769053 C17.602158,5.47335161 17.46305,5.32034661 17.46305,4.9999 C17.46305,4.67945339 17.602158,4.52644839 17.6805049,4.4917141 L10.5076142,7.68010947 C10.2635885,7.7882953 9.73601146,7.7882953 9.49109514,7.6797141 Z M18.4919858,6.31969053 C19.787035,5.74554399 19.787035,4.25425601 18.4910951,3.6797141 L11.3199858,0.492109469 C10.5580115,0.154295298 9.44158854,0.154295298 8.68050486,0.491714105 L1.50761425,3.68010947 C0.212565046,4.25425601 0.212565046,5.74554399 1.50850486,6.3200859 L8.67961425,9.50769053 C9.44158854,9.8455047 10.5580115,9.8455047 11.3190951,9.5080859 L18.4919858,6.31969053 Z" id="Stroke-20"></path>
                <path d="M4,10 C4,10.9587261 4.66678521,11.943547 5.55660932,12.2994767 L8.7005075,13.557436 C9.44902035,13.8568411 10.5509796,13.8568411 11.2993907,13.5574767 L14.4434925,12.299436 C15.3332148,11.943547 16,10.9587261 16,10 L16,7 C16,6.44771525 15.5522847,6 15,6 C14.4477153,6 14,6.44771525 14,7 L14,10 C14,10.1409009 13.8311315,10.3903144 13.7006093,10.4425233 L10.5565075,11.700564 C10.2850204,11.8091589 9.71497965,11.8091589 9.44339068,11.7005233 L6.2994925,10.442564 C6.16886849,10.3903144 6,10.1409009 6,10 L6,7 C6,6.44771525 5.55228475,6 5,6 C4.44771525,6 4,6.44771525 4,7 L4,10 Z" id="Stroke-21"></path>
            </g>
        </g>
    </g>
</svg>
