<svg width="500" height="600" viewBox="9.5 23 5 25" version="1.1" xmlns="http://www.w3.org/2000/svg">
    <g id="Rent" stroke="none" stroke-width="1" fill="none" fill-rule="evenodd">
        <g id="Group-29" opacity="0.300000012" transform="translate(0.000000, 24.000000)">
            <rect id="Rectangle-" x="0" y="0" width="24" height="24"></rect>
            <g id="icon_wheelchair" transform="translate(3.000000, 1.000000)" fill="#2E2D36">
                <g id="Слой_1">
                    <path d="M16.95,17.68 L14.95,11.68 C14.8124279,11.2726883 14.4299159,10.9988902 14,11 L9.75,11 L9.18,9 L13,9 C13.5522847,9 14,8.55228475 14,8 C14,7.44771525 13.5522847,7 13,7 L8.61,7 L8,4.73 C7.9035383,4.3727344 7.62380508,4.09406908 7.26617314,3.99897457 C6.90854121,3.90388006 6.52734335,4.00680348 6.26617313,4.26897458 C6.0050029,4.53114567 5.90353828,4.91273441 6,5.27 L6.51,7.07 C3.24168078,7.55031392 0.853421923,10.4056771 0.958373466,13.7074338 C1.06332501,17.0091905 3.62810383,19.7071135 6.92032943,19.9788902 C10.212555,20.2506669 13.185032,18.00985 13.83,14.77 L15.01,18.31 C15.1225387,18.6565476 15.4114096,18.9167322 15.767798,18.9925447 C16.1241864,19.0683571 16.4939483,18.9482798 16.737798,18.6775447 C16.9816477,18.4068095 17.0625387,18.0265476 16.95,17.68 L16.95,17.68 Z M7.5,18 C5.01471863,18.1076955 2.91269553,16.1802814 2.805,13.695 C2.69730447,11.2097186 4.62471863,9.10769553 7.11,9 L8,12.27 C8.12451058,12.7152375 8.53799617,13.017082 9,13 L12,13 C12.0092253,13.166539 12.0092253,13.333461 12,13.5 C12,15.9852814 9.98528137,18 7.5,18 L7.5,18 Z" id="Shape"></path>
                    <circle id="Oval" cx="6.5" cy="1.5" r="1.5"></circle>
                </g>
            </g>
        </g>
    </g>
</svg>
