<svg width="500" height="600" viewBox="9.5 23 5 25" version="1.1" xmlns="http://www.w3.org/2000/svg" xmlns:xlink="http://www.w3.org/1999/xlink">
    <g id="Rent" stroke="none" stroke-width="1" fill="none" fill-rule="evenodd">
        <g id="Group-15" transform="translate(0.000000, 24.000000)">
            <rect id="Rectangle-" x="0" y="0" width="24" height="24"></rect>
            <g id="Group-10" transform="translate(4.000000, 7.000000)" fill="#2E2D36" fill-rule="nonzero">
                <path d="M12,6 C12.5522847,6 13,5.55228475 13,5 C13,4.44771525 12.5522847,4 12,4 L5,4 C4.44771525,4 4,4.44771525 4,5 C4,5.55228475 4.44771525,6 5,6 L12,6 Z" id="Stroke-6"></path>
                <path d="M11,9 C11,9.55228475 11.4477153,10 12,10 C12.5522847,10 13,9.55228475 13,9 L13,1 C13,0.44771525 12.5522847,0 12,0 C11.4477153,0 11,0.44771525 11,1 L11,9 Z" id="Stroke-7"></path>
                <path d="M3,9 C3,9.55228475 3.44771525,10 4,10 C4.55228475,10 5,9.55228475 5,9 L5,1 C5,0.44771525 4.55228475,0 4,0 C3.44771525,0 3,0.44771525 3,1 L3,9 Z" id="Stroke-8"></path>
                <path d="M0,7 C0,7.55228475 0.44771525,8 1,8 C1.55228475,8 2,7.55228475 2,7 L2,3 C2,2.44771525 1.55228475,2 1,2 C0.44771525,2 0,2.44771525 0,3 L0,7 Z" id="Stroke-9"></path>
                <path d="M14,7 C14,7.55228475 14.4477153,8 15,8 C15.5522847,8 16,7.55228475 16,7 L16,3 C16,2.44771525 15.5522847,2 15,2 C14.4477153,2 14,2.44771525 14,3 L14,7 Z" id="Stroke-10"></path>
            </g>
        </g>
    </g>
</svg>
