<svg width="14" height="16" viewBox="0 0 14 16" xmlns="http://www.w3.org/2000/svg"><g fill="none" fill-rule="evenodd"><path d="M1 1.992v7.016c0 .793.555 1.958 1.177 2.457a64.373 64.373 0 0 0 2.815 2.186c.593.431 1.109.78 1.52 1.026.348.207.611.323.569.323-.046 0 .203-.11.534-.31.395-.239.89-.58 1.457-1.002.15-.11.302-.226.46-.345A60.127 60.127 0 0 0 11.82 11.5c.622-.508 1.18-1.688 1.18-2.492V1.992C13 1.45 12.548 1 11.994 1H2.006A.998.998 0 0 0 1 1.992z" stroke="#2E2D36" stroke-width="2"/><path d="M6.796 10.8v-.712c-.816-.048-1.432-.384-1.832-.84l.392-.504c.312.352.8.68 1.44.752V7.544c-.816-.224-1.664-.496-1.664-1.48 0-.832.696-1.416 1.664-1.472v-.736h.488V4.6c.664.064 1.184.32 1.576.728l-.4.488a1.957 1.957 0 0 0-1.176-.608v1.736c.824.232 1.696.544 1.696 1.584 0 .728-.464 1.464-1.696 1.56v.712h-.488zm1.496-2.216c0-.52-.448-.736-1.008-.904v1.816c.76-.08 1.008-.536 1.008-.912zM5.82 6.024c0 .448.432.632.976.792V5.184c-.576.04-.976.368-.976.84z" fill="#2E2D36"/></g></svg>
