<svg width="500" height="600" viewBox="9.5 23 5 25" version="1.1" xmlns="http://www.w3.org/2000/svg" xmlns:xlink="http://www.w3.org/1999/xlink">
    <g id="Rent" stroke="none" stroke-width="1" fill="none" fill-rule="evenodd">
        <g id="Group-21" opacity="0.300000012" transform="translate(0.000000, 24.000000)">
            <rect id="Rectangle-" x="0" y="0" width="24" height="24"></rect>
            <g id="Group-11" transform="translate(4.000000, 6.000000)" fill="#2E2D36" fill-rule="nonzero">
                <polygon id="Stroke-27" points="7 11 9 11 9 0 7 0"></polygon>
                <path d="M1.85463824,2.91345231 C0.71458171,4.8131465 0.71458171,7.1868535 1.85465487,9.08657541 L3.31163824,11.5145477 L5.02656176,10.4854523 L3.56956176,8.05745231 C2.80961829,6.7911465 2.80961829,5.2088535 3.56954513,3.94257541 L5.02656176,1.51454769 L3.31163824,0.485452311 L1.85463824,2.91345231 Z" id="Stroke-28"></path>
                <path d="M12.4304382,3.94254769 C13.1903817,5.2088535 13.1903817,6.7911465 12.4304549,8.05742459 L10.9734382,10.4854523 L12.6883618,11.5145477 L14.1453618,9.08654769 C15.2854183,7.1868535 15.2854183,4.8131465 14.1453451,2.91342459 L12.6883618,0.485452311 L10.9734382,1.51454769 L12.4304382,3.94254769 Z" id="Stroke-29"></path>
                <path d="M15,2 C15.5522847,2 16,1.55228475 16,1 C16,0.44771525 15.5522847,0 15,0 L1,0 C0.44771525,0 0,0.44771525 0,1 C0,1.55228475 0.44771525,2 1,2 L15,2 Z" id="Stroke-30"></path>
                <path d="M15,12 C15.5522847,12 16,11.5522847 16,11 C16,10.4477153 15.5522847,10 15,10 L1,10 C0.44771525,10 0,10.4477153 0,11 C0,11.5522847 0.44771525,12 1,12 L15,12 Z" id="Stroke-31"></path>
            </g>
        </g>
    </g>
</svg>
