<svg width="500" height="600" viewBox="9.5 23 5 25" version="1.1" xmlns="http://www.w3.org/2000/svg" xmlns:xlink="http://www.w3.org/1999/xlink">
    <g id="Rent" stroke="none" stroke-width="1" fill="none" fill-rule="evenodd">
        <g id="Group-24" opacity="0.300000012" transform="translate(0.000000, 24.000000)">
            <rect id="Rectangle-" x="0" y="0" width="24" height="24"></rect>
            <g id="icon_pool" transform="translate(3.000000, 4.000000)" fill="#2E2D36">
                <g id="Слой_1">
                    <path d="M17,14 C16.4815132,13.9821093 16.0025085,13.7184711 15.71,13.29 C15.0492728,12.4736643 14.0552211,11.9993778 13.005,11.9993778 C11.9547789,11.9993778 10.9607272,12.4736643 10.3,13.29 C10.0165676,13.7304126 9.52873392,13.9965883 9.005,13.9965883 C8.48126608,13.9965883 7.99343244,13.7304126 7.71,13.29 C7.04007649,12.4827172 6.04899149,12.0109461 5,12 C3.95451867,12.0138677 2.96766913,12.4853625 2.3,13.29 C2.00431559,13.7200264 1.52161745,13.9836538 1,14 C0.44771525,14 0,14.4477153 0,15 C0,15.5522847 0.44771525,16 1,16 C2.04899149,15.9890539 3.04007649,15.5172828 3.71,14.71 C4.00361319,14.2827469 4.48195112,14.0194756 5,14 C5.52161745,14.0163462 6.00431559,14.2799736 6.3,14.71 C6.96072722,15.5263357 7.9547789,16.0006222 9.005,16.0006222 C10.0552211,16.0006222 11.0492728,15.5263357 11.71,14.71 C11.990989,14.2693956 12.4774227,14.0026786 13,14.0026786 C13.5225773,14.0026786 14.009011,14.2693956 14.29,14.71 C14.9590643,15.5183864 15.9506937,15.9904166 17,16 C17.5522847,16 17.9999999,15.5522847 17.9999999,15 C17.9999999,14.4477153 17.5522847,14 17,14 L17,14 Z" id="Shape"></path>
                    <path d="M1,11 C2.04899149,10.9890539 3.04007649,10.5172828 3.71,9.71 C4.00361319,9.28274687 4.48195112,9.01947561 5,9 C5.52161745,9.01634617 6.00431559,9.27997361 6.3,9.71 C6.96072722,10.5263357 7.9547789,11.0006222 9.005,11.0006222 C10.0552211,11.0006222 11.0492728,10.5263357 11.71,9.71 C11.990989,9.26939564 12.4774227,9.00267855 13,9.00267855 C13.5225773,9.00267855 14.009011,9.26939564 14.29,9.71 C14.9590643,10.5183864 15.9506937,10.9904166 17,11 C17.5522847,11 18,10.5522847 18,10 C18,9.44771525 17.5522847,9 17,9 C16.4815132,8.98210933 16.0025085,8.71847107 15.71,8.29 C15.2502206,7.76389885 14.6606552,7.36740755 14,7.14 L14,1 C14,0.44771525 13.5522847,0 13,0 C12.4477153,0 12,0.44771525 12,1 L12,3 L6,3 L6,1 C6,0.44771525 5.55228475,0 5,0 C4.44771525,0 4,0.44771525 4,1 L4,7.15 C3.34399027,7.3810065 2.75852361,7.77705748 2.3,8.3 C2.00214538,8.72623293 1.51980251,8.98595601 1,9 C0.44771525,9 0,9.44771525 0,10 C0,10.5522847 0.44771525,11 1,11 L1,11 Z M12,5 L12,7.15 C11.3439903,7.3810065 10.7585236,7.77705748 10.3,8.3 C10.0165676,8.74041262 9.52873392,9.00658834 9.005,9.00658834 C8.48126608,9.00658834 7.99343244,8.74041262 7.71,8.3 C7.25143385,7.77024022 6.66175836,7.37022644 6,7.14 L6,5 L12,5 L12,5 Z" id="Shape"></path>
                </g>
            </g>
        </g>
    </g>
</svg>
