<svg width="500" height="600" viewBox="9.5 23 5 25" version="1.1" xmlns="http://www.w3.org/2000/svg" xmlns:xlink="http://www.w3.org/1999/xlink">
    <g id="Rent" stroke="none" stroke-width="1" fill="none" fill-rule="evenodd">
        <g id="Group-19" opacity="0.300000012" transform="translate(0.000000, 24.000000)">
            <rect id="Rectangle-" x="0" y="0" width="24" height="24"></rect>
            <g id="Group-4" transform="translate(5.000000, 4.000000)" fill="#2E2D36">
                <path d="M10.7,4 L3.3,4 C2.032,4 1,5.032 1,6.3 L1,11.7 C1,12.968 2.032,14 3.3,14 L10.7,14 C11.968,14 13,12.968 13,11.7 L13,6.3 C13,5.032 11.968,4 10.7,4 M10.7,6 C10.865,6 11,6.135 11,6.3 L11,11.7 C11,11.865 10.865,12 10.7,12 L3.3,12 C3.135,12 3,11.865 3,11.7 L3,6.3 C3,6.135 3.135,6 3.3,6 L10.7,6" id="Fill-13"></path>
                <path d="M11.7,0 L2.3,0 C1.032,0 0,1.032 0,2.3 L0,3.7 C0,4.968 1.032,6 2.3,6 L11.7,6 C12.968,6 14,4.968 14,3.7 L14,2.3 C14,1.032 12.968,0 11.7,0 M11.7,2 C11.865,2 12,2.135 12,2.3 L12,3.7 C12,3.865 11.865,4 11.7,4 L2.3,4 C2.135,4 2,3.865 2,3.7 L2,2.3 C2,2.135 2.135,2 2.3,2 L11.7,2" id="Fill-15"></path>
                <path d="M9,8.5 C9,8.775 8.775,9 8.5,9 L5.5,9 C5.225,9 5,8.775 5,8.5 C5,8.225 5.225,8 5.5,8 L8.5,8 C8.775,8 9,8.225 9,8.5" id="Fill-19"></path>
            </g>
        </g>
    </g>
</svg>
