<svg width="18" height="18" viewBox="0 0 18 18" xmlns="http://www.w3.org/2000/svg"><path d="M13.344 2.445c-.892-.892-2.249-.984-3.03-.202-.782.781-.69 2.138.202 3.03l-.202-.202-5.657 5.657.202.202c-.892-.892-2.25-.983-3.03-.202-.782.781-.69 2.138.202 3.03a2.413 2.413 0 0 0 1.7.725 2.416 2.416 0 0 0 .724 1.7c.893.893 2.249.983 3.03.202.782-.782.691-2.138-.202-3.03l.202.201L13.142 7.9l-.202-.202c.893.893 2.25.984 3.03.202.782-.78.691-2.137-.202-3.03a2.414 2.414 0 0 0-1.7-.724 2.41 2.41 0 0 0-.724-1.7z" stroke="#7c54c1" stroke-width="2" stroke-linejoin="round" fill="none"/></svg>
