<svg width="500" height="600" viewBox="9.5 23 5 25" version="1.1" xmlns="http://www.w3.org/2000/svg" xmlns:xlink="http://www.w3.org/1999/xlink">
    <g id="Rent" stroke="none" stroke-width="1" fill="none" fill-rule="evenodd">
        <g id="Group-27" transform="translate(0.000000, 24.000000)">
            <rect id="Rectangle-" x="0" y="0" width="24" height="24"></rect>
            <path d="M18.35,14.76 L15.22,13.82 C15.0881445,13.7800051 14.9985125,13.6577797 15,13.52 L15,12.28 C15.6609195,11.3146589 16.0099401,10.1698714 16,9 L16,5 C16,3.8954305 15.1045695,3 14,3 L10,3 C8.8954305,3 8,3.8954305 8,5 L8,9 C7.98941526,10.1699646 8.3384935,11.3149412 9,12.28 L9,13.53 C9.00148748,13.6677797 8.91185549,13.7900051 8.78,13.83 L5.65,14.77 C4.64905958,15.0703399 3.97442398,16.0052613 4.00487154,17.0498468 C4.03531909,18.0944322 4.7632652,18.9884712 5.78,19.23 C7.82370668,19.6863276 9.90671137,19.9441915 12,20 C14.0932886,19.9441915 16.1762933,19.6863276 18.22,19.23 C19.2458296,18.9954072 19.9834622,18.0971527 20.0140535,17.0452857 C20.0446447,15.9934186 19.3604621,15.0538138 18.35,14.76 L18.35,14.76 Z M10,5 L14,5 L14,6 L10,6 L10,5 L10,5 Z M14,8 L14,9 C14,10.6 13.07,12 12,12 C10.93,12 10,10.6 10,9 L10,8 L14,8 L14,8 Z M17.79,17.27 C15.8878867,17.6985094 13.9489491,17.9429696 12,18 C10.0510509,17.9429696 8.11211327,17.6985094 6.21,17.27 C6.08872424,17.2352567 6.00382176,17.1260964 6,17 C5.99851252,16.8622203 6.08814451,16.7399949 6.22,16.7 L9.35,15.76 C10.2451119,15.5056182 10.8972834,14.7348701 11,13.81 C11.6457293,14.04629 12.3542707,14.04629 13,13.81 C13.1094476,14.7155101 13.7458218,15.4697313 14.62,15.73 L17.75,16.67 C17.9053379,16.7000812 18.0130938,16.842319 18,17 C17.9961782,17.1260964 17.9112758,17.2352567 17.79,17.27 L17.79,17.27 Z" id="Shape" fill="#7B53C1"></path>
        </g>
    </g>
</svg>
