<svg width="500" height="600" viewBox="9.5 23 5 25" version="1.1" xmlns="http://www.w3.org/2000/svg" xmlns:xlink="http://www.w3.org/1999/xlink">
    <g id="Rent" stroke="none" stroke-width="1" fill="none" fill-rule="evenodd">
        <g id="Group-33" transform="translate(0.000000, 24.000000)">
            <rect id="Rectangle-" x="0" y="0" width="24" height="24"></rect>
            <path d="M12,17 C9.79128475,17 8,15.2087153 8,13 C8,12.3282268 8.47609639,11.1311003 9.3305405,9.64173489 C9.62840077,9.12254027 9.96604768,8.57712479 10.3360629,8.01325867 C10.8708895,7.19823631 11.4454865,6.38606653 12.0201475,5.61611657 C12.2212465,5.34667732 12.4077918,5.10202038 12.5748618,4.88696067 C12.6742131,4.75907145 12.7443391,4.67027747 12.7803316,4.62536594 L11.2196684,4.62536594 C11.2556609,4.67027747 11.3257869,4.75907145 11.4251382,4.88696067 C11.5922082,5.10202038 11.7787535,5.34667732 11.9798525,5.61611657 C12.5545135,6.38606653 13.1291105,7.19823631 13.6639371,8.01325867 C14.0339523,8.57712479 14.3715992,9.12254027 14.6694595,9.64173489 C15.5239036,11.1311003 16,12.3282268 16,13 C16,15.2087153 14.2087153,17 12,17 Z M16.4042483,8.64649222 C16.0852291,8.0904159 15.7268608,7.51152833 15.3360629,6.91599133 C14.7771395,6.06424806 14.1798615,5.22001941 13.5826475,4.41985218 C13.3735903,4.13975042 13.1792761,3.88490442 13.0045493,3.65998855 C12.8988225,3.52389242 12.8224641,3.4272069 12.7803316,3.37463406 C12.3800174,2.87512198 11.6199826,2.87512198 11.2196684,3.37463406 C11.1775359,3.4272069 11.1011775,3.52389242 10.9954507,3.65998855 C10.8207239,3.88490442 10.6264097,4.13975042 10.4173525,4.41985218 C9.82013855,5.22001941 9.22286048,6.06424806 8.66393715,6.91599133 C8.27313919,7.51152833 7.91477092,8.0904159 7.59575175,8.64649222 C6.57576031,10.4244201 6,11.8721477 6,13 C6,16.3132847 8.68671525,19 12,19 C15.3132847,19 18,16.3132847 18,13 C18,11.8721477 17.4242397,10.4244201 16.4042483,8.64649222 Z" id="Stroke-32" fill="#7B53C1" fill-rule="nonzero"></path>
        </g>
    </g>
</svg>
