<svg width="500" height="600" viewBox="9.5 23 5 25" version="1.1" xmlns="http://www.w3.org/2000/svg" xmlns:xlink="http://www.w3.org/1999/xlink">
    <g id="Rent" stroke="none" stroke-width="1" fill="none" fill-rule="evenodd">
        <g id="Group-14" transform="translate(0.000000, 24.000000)">
            <rect id="Rectangle" x="0" y="0" width="24" height="24"></rect>
            <g id="icon_washer" transform="translate(5.000000, 4.000000)" fill="#7B53C1">
                <g id="Слой_1">
                    <path d="M11.7,0 L2.3,0 C1.02974508,0 0,1.02974508 0,2.3 L0,13.7 C-8.8817842e-16,14.3099979 0.242320733,14.8950119 0.673654403,15.3263456 C1.10498807,15.7576793 1.69000207,16 2.3,16 L11.7,16 C12.3099979,16 12.8950119,15.7576793 13.3263456,15.3263456 C13.7576793,14.8950119 14,14.3099979 14,13.7 L14,2.3 C14,1.69000207 13.7576793,1.10498807 13.3263456,0.673654403 C12.8950119,0.242320733 12.3099979,-8.8817842e-16 11.7,0 L11.7,0 Z M12,13.7 C12,13.7795649 11.9683929,13.8558711 11.912132,13.912132 C11.8558711,13.9683929 11.7795649,14 11.7,14 L2.3,14 C2.22043505,14 2.14412888,13.9683929 2.08786797,13.912132 C2.03160705,13.8558711 2,13.7795649 2,13.7 L2,2.3 C2,2.13431458 2.13431458,2 2.3,2 L11.7,2 C11.7795649,2 11.8558711,2.03160705 11.912132,2.08786797 C11.9683929,2.14412888 12,2.22043505 12,2.3 L12,13.7 L12,13.7 Z" id="Shape"></path>
                    <path d="M7,5 C4.790861,5 3,6.790861 3,9 C3,11.209139 4.790861,13 7,13 C9.209139,13 11,11.209139 11,9 C11,7.93913404 10.5785726,6.92171839 9.82842712,6.17157288 C9.07828161,5.42142736 8.06086596,5 7,5 L7,5 Z M7,11 C5.8954305,11 5,10.1045695 5,9 C5,7.8954305 5.8954305,7 7,7 C8.1045695,7 9,7.8954305 9,9 C9,10.1045695 8.1045695,11 7,11 L7,11 Z" id="Shape"></path>
                    <path d="M3.5,4 L5.5,4 C5.77614237,4 6,3.77614237 6,3.5 C6,3.22385763 5.77614237,3 5.5,3 L3.5,3 C3.22385763,3 3,3.22385763 3,3.5 C3,3.77614237 3.22385763,4 3.5,4 L3.5,4 Z" id="Shape"></path>
                </g>
            </g>
        </g>
    </g>
</svg>
